<?xml version="1.0" encoding="UTF-8"?>
<svg width="125px" height="30px" viewBox="0 0 125 30" version="1.1" xmlns="http://www.w3.org/2000/svg" xmlns:xlink="http://www.w3.org/1999/xlink">
    <!-- Generator: Sketch 48.1 (47250) - http://www.bohemiancoding.com/sketch -->
    <title>ApexLogo_Black_SpotGreen</title>
    <desc>Created with Sketch.</desc>
    <defs>
        <polygon id="path-1" points="0.227012987 0.226681287 18.9889357 0.226681287 18.9889357 29.1513158 0.227012987 29.1513158"></polygon>
    </defs>
    <g id="Login---Dark" stroke="none" stroke-width="1" fill="none" fill-rule="evenodd" transform="translate(-638.000000, -23.000000)">
        <g id="Left-Column">
            <g id="ApexLogo_Black_SpotGreen" transform="translate(638.000000, 23.000000)">
                <g id="Group-3" transform="translate(105.833333, 0.000000)">
                    <mask id="mask-2" fill="white">
                        <use xlink:href="#path-1"></use>
                    </mask>
                    <g id="Clip-2"></g>
                    <path d="M5.15882035,20.358845 L4.17310606,19.7460892 C4.17310606,19.7460892 10.6260498,25.9040936 10.5857251,25.8746711 C10.4757035,26.3784357 8.78132035,24.6238304 7.2800974,23.369152 C5.49461039,21.8767909 0.227012987,17.2671784 0.227012987,17.2671784 C0.228008658,16.717617 0.231991342,14.3108553 0.242694805,11.9166301 C0.242694805,11.9166301 8.39325758,4.98903509 10.6215693,2.50040205 C11.5002489,1.61567982 12.8454004,0.706396199 12.9454654,1.20734649 C13.2135498,1.46703216 12.5648701,1.7558845 12.5648701,2.14400585 L13.923961,1.07097953 C14.7068074,0.474597953 15.8239502,0.366374269 15.8239502,0.366374269 C15.9170455,0.687207602 16.242132,0.0941520468 16.5132035,0.254824561 C16.5132035,0.254824561 16.7944805,0.382236842 16.4927922,0.81871345 C16.5278896,0.851717836 16.5378463,0.906469298 16.520671,0.982200292 C16.7339935,0.938450292 16.8024459,1.02850877 16.8061797,1.18406433 C16.9117208,1.13135965 16.9682251,1.17817982 16.8843398,1.29510234 L16.7728247,1.42277047 L16.7770563,1.4442617 C16.7073593,1.6688962 17.7610281,0.762171053 17.7610281,0.762171053 C18.0452922,0.704861111 18.2307359,0.782894737 18.2307359,0.782894737 C18.3987554,0.665204678 18.3591775,0.697697368 18.405974,0.66750731 C18.4570022,0.638852339 18.5082792,0.613523392 18.5667749,0.646016082 C18.6145671,0.799269006 18.5199784,0.864766082 18.5199784,0.864766082 C18.4435606,1.00497076 16.242132,2.59506579 16.9956061,1.92960526 C15.8202165,3.07145468 17.3871537,1.97770468 17.3871537,1.97770468 C17.5352597,1.83775585 18.4522727,1.05281433 18.5978896,1.20606725 C18.9516017,1.66224415 18.1309199,2.11535088 18.0577381,2.35942982 C18.5416342,2.16421784 19.0999567,1.84926901 18.9697727,2.21410819 C19.4521753,3.43220029 8.8311039,11.2506579 8.8311039,11.2506579 C8.29568182,12.095212 4.62090909,14.6994883 4.62090909,14.6994883 C4.62090909,14.6994883 7.07399351,17.0845029 7.44587662,17.4662281 C7.27511905,17.6238304 5.75124459,15.7310673 5.78982684,16.4461623 C16.4524675,26.4406067 15.1015909,24.9784357 18.29421,28.1269006 C18.5135065,28.3313231 18.6805303,28.5644006 18.660368,28.6424342 C18.6431926,28.7220029 18.4480411,28.6171053 18.2277489,28.4126827 C14.5743831,25.2695906 8.63172078,19.6629386 9.43024892,20.8858918 C9.43024892,20.8858918 17.011039,27.9598319 17.0175108,27.9851608 C17.0232359,28.0099781 11.7730628,23.9105263 11.7730628,23.9105263 C11.7730628,23.9105263 17.4384307,29.1403143 17.4307143,29.1523392 C17.3854113,29.4260965 13.0935714,25.686367 11.7499134,24.4846491 C10.9815043,24.4452485 16.1542641,28.3379751 15.4889069,28.4715278 C15.0411039,28.5429094 8.6362013,21.9998538 8.59537879,22.5217836 L8.81467532,22.7443713 C10.6984848,24.6041301 14.0262662,27.5681287 13.890855,27.6579313 C12.943474,27.8656798 5.30667749,20.5077485 5.15882035,20.358845" id="Fill-1" fill="#74B943" mask="url(#mask-2)"></path>
                </g>
                <path d="M104.166667,12.2000634 L104.166667,17.8851992 L96.3021755,25 L90,25 L101.043048,15.0282449 L90,5 L96.2474906,5 L104.166667,12.2000634 Z M66.1796738,8.85713909 L66.1796738,13.1427025 L76.2462571,13.1427025 L72.4344591,16.8596732 L66.1796738,16.8570335 L66.1796738,21.1428609 L88.3333333,21.1428609 L88.3333333,25 L61.6666667,25 L61.6666667,5 L88.3333333,5 L88.3333333,8.85713909 L66.1796738,8.85713909 Z M36.6666667,16.6666667 L50.7626571,16.6666667 C52.7289623,16.6666667 55,16.15667 55,12.947017 C55,9.67694051 52.7289623,9.16666667 50.7626571,9.16666667 L36.6666667,9.16666667 L36.6666667,16.6666667 Z M32.5,5 L50.456842,5 C56.6396503,5 59.1666667,7.53943987 59.1666667,12.5039209 C59.1666667,16.8402636 56.693295,19.8647117 50.5107352,19.8647117 L36.9356278,19.8647117 L36.9356278,25 L32.5,25 L32.5,5 Z M9.16666667,17.5 L20,17.5 L14.6630623,8.33333333 L9.16666667,17.5 Z M30,25 L24.8877252,25 L22.6278939,21.285669 L7.26447144,21.285669 L4.95069851,25 L0,25 L12.1343818,5 L17.8651211,5 L30,25 Z" id="Fill-4" fill="#FFFFFF"></path>
            </g>
        </g>
    </g>
</svg>